<?xml version="1.0" encoding="utf-8"?>
<!-- Generator: Adobe Illustrator 23.0.4, SVG Export Plug-In . SVG Version: 6.00 Build 0)  -->
<svg version="1.1" id="Layer_1" xmlns="http://www.w3.org/2000/svg" xmlns:xlink="http://www.w3.org/1999/xlink" x="0px" y="0px"
	 viewBox="0 0 400 130" style="enable-background:new 0 0 400 130;" xml:space="preserve">
<style type="text/css">
	.st0{fill-rule:evenodd;clip-rule:evenodd;fill:#B30140;}
	.st1{fill:#110D5B;}
	.st2{fill:#ACACAC;}
</style>
<g>
	<g>
		<path class="st0" d="M76.5273895,31.1948452c-0.3454132,0.6793308,0.0002518,1.078619,0.2406387,1.4911213
			c1.0933304,1.8754997,2.2138214,3.735054,3.324028,5.6009979c1.520752,2.5558052,2.777359,5.2181015,3.6278305,8.0870132
			c1.0406952,3.5103378,2.8172684,6.6962891,4.8087845,9.7402306c3.1854477,4.8682938,5.7686844,10.0658455,8.4987869,15.1842995
			c0.3437119,0.644104,0.594902,1.3376541,0.9594193,2.1687698c-1.5117035-0.4744492-2.4524994-1.283783-3.2415237-2.4387817
			C82.8686905,53.6433601,71.8409958,35.7159691,60.7264099,17.8439293
			c-3.1754227-5.1059952-6.3483887-10.2134457-9.5110779-15.3272877c-0.2350159-0.3799379-0.58778-0.7150782-0.6094398-1.2705454
			c4.2028809-0.7843715,8.4389229-1.1324931,12.7060814-0.995895c6.8932266,0.2208281,13.5894928,1.4774354,20.0536728,3.9255216
			c0.7241516,0.274199,1.144722,0.6445856,1.4012756,1.4052134c7.3484497,21.7880096,14.9044876,43.5057755,22.0541382,65.3609009
			c0.1899643,0.5801849,0.5211945,1.1491394,0.2592545,1.879158c-0.7868195-0.2685623-0.9645309-0.9988327-1.2632217-1.5966644
			c-5.1336441-10.267292-10.2560349-20.540226-15.383316-30.8107033c-0.4073639-0.8157043-0.8015137-1.6446419-1.6593094-2.3056221
			c-0.0856857,1.0475349,0.3848267,1.8245583,0.7581711,2.610405c5.1020584,10.746151,10.2154007,21.48666,15.3262863,32.228653
			c0.4127502,0.8675919,0.8389664,1.7303009,0.8891525,2.7171478c0.0340195,0.6688004-0.099144,1.274704-0.7711563,1.5721436
			c-0.6242523,0.2761536-1.021843-0.1931534-1.4098511-0.5559464c-0.6465378-0.6049271-1.1084976-1.3550262-1.5423126-2.1195679
			c-7.9949875-14.0912132-16.3302536-27.9826736-24.5901108-41.918438
			C77.1443024,32.1527824,76.8304672,31.6771126,76.5273895,31.1948452z"/>
		<path class="st0" d="M53.0179825,40.1435852c-0.0396614,0.7268372,0.442131,1.0358047,0.8133698,1.4103546
			c11.7626038,11.867363,23.532547,23.7278824,35.2931976,35.597229c0.6039276,0.6093369,1.3518143,1.1469269,1.3300323,2.1653366
			c-0.0210571,0.9868164-0.4421082,1.2845078-1.3386078,0.8492432c-0.408844-0.198288-0.7709045-0.4969559-1.1432724-0.7647858
			c-6.4257507-4.623703-11.8181534-10.3343811-16.8989334-16.3334389
			c-7.2185631-8.5230293-15.1320267-16.3818932-22.9075394-24.3751526c-0.3680573-0.378231-0.7258568-0.7978516-1.377037-0.7934418
			c-0.0877647,0.8323479,0.4708862,1.3097267,0.9216919,1.8299484c5.3872643,6.2198906,10.7784653,12.4365654,16.1678123,18.6547279
			c0.2690544,0.310421,0.5305214,0.6271858,0.6822853,1.1028633c-0.209671-0.1429672-0.4359894-0.2666054-0.626709-0.4316063
			C48.6711578,45.8621063,33.4135361,32.6627045,18.13904,19.4831562c-0.5571976-0.4808121-0.5529099-0.7290401-0.0450478-1.2330952
			c6.2227955-6.1765423,13.4287529-10.8186207,21.5893421-14.0160789c0.9562378-0.374799,1.1653061,0.2335625,1.5323868,0.7469149
			c10.7127342,14.9793882,21.4233894,29.9602547,32.1315842,44.9430771
			c6.0218201,8.4258385,12.0397339,16.8541336,18.055191,25.2843857c0.4054108,0.5681992,0.8707809,1.1273499,0.7273102,1.9447632
			c-0.8218155-0.0866623-1.2029877-0.7062836-1.6316299-1.2475357c-3.630043-4.5838165-7.2537155-9.1727753-10.8842316-13.756321
			c-0.3505783-0.4423828-0.642128-0.9868431-1.5048294-0.9758148c0.709938,2.1175842,2.3599396,3.6148491,3.1658707,5.6021996
			C71.6796799,58.0746384,62.5607681,48.8832817,53.0179825,40.1435852z"/>
		<path class="st0" d="M72.3548737,86.4965134c-13.2988014-2.6544724-26.5976753-5.3091736-39.8965721-7.9636459
			c-0.0285301,0.1346359-0.0571823,0.2692795-0.0856857,0.4039459c9.5121803,2.2059784,19.0243607,4.412178,28.5366669,6.6181564
			c-0.0173721,0.1140823-0.0347443,0.2281723-0.0521393,0.3420105c-2.2992554-0.2570572-4.598362-0.5141068-6.8976173-0.7711563
			c1.0500946,0.9620972,2.3306923,1.10923,3.5868225,1.3188019c7.1804886,1.1978455,14.2373657,2.8649979,21.0271606,5.5412598
			c0.593895,0.2340393,1.2654037,0.3811646,1.7028961,1.1412888c-1.8142776,0.3079681-3.4870758-0.1150665-5.1534958-0.2913208
			c-10.5881195-1.1207352-21.1717033-2.282608-31.7553139-3.4432526
			c-11.0816422-1.2154694-22.1616039-2.4451599-33.2423935-3.6684723c-1.5770569-0.1743011-3.1515574-0.380661-4.7325258-0.5077133
			c-0.6370149-0.0514145-0.9301653-0.3163147-1.157712-0.8987045C2.1255519,78.9184418,0.8187828,73.328949,0.2762761,67.5659103
			c-0.4199721-4.4609108-0.3859541-8.9206161,0.2739483-13.4926796c3.2030737,1.2673874,6.3365068,2.5098076,9.4720211,3.7470627
			c17.8601818,7.0478249,35.6158524,14.3531761,53.3798218,21.638195c0.8565903,0.3513107,1.6633453,0.7493744,2.2309418,1.5014267
			c-0.0412598,0.1135864-0.0826263,0.2271729-0.1239853,0.3407593
			C44.5622864,74.4536209,23.6155224,67.6062927,2.3799219,60.6647377c0.4887598,0.8374863,1.0368819,0.8467865,1.490145,1.000782
			c13.3160448,4.5216217,26.7590122,8.6647644,39.9707489,13.4987717c4.9739075,1.8199158,9.7610321,4.1563721,14.9280968,5.4430847
			c3.0766525,0.7660217,6.2020111,1.3667908,9.1416702,2.6023331
			C69.5985413,83.9189224,71.2811127,84.6646118,72.3548737,86.4965134z"/>
		<path class="st0" d="M49.0313911,57.6736412c-9.0487633-6.0852203-18.0975285-12.1704407-27.1462936-18.2554092
			c-0.0808964,0.1040344-0.1616917,0.2080917-0.2426128,0.3121262c0.2750511,0.6352844,0.8715305,0.9797249,1.4185486,1.3645782
			c10.5204334,7.4013138,21.0430775,14.7991905,31.5600758,22.2049179c0.6015167,0.4237633,1.2815742,0.7694283,1.5364227,1.6735268
			c-7.7843132-4.6151581-15.5685234-9.2302895-23.3528366-13.8454437c-0.0365982,0.8942947,0.5504532,1.131012,1.0412941,1.4360466
			c11.7382393,7.2963066,23.4803848,14.5864906,35.218647,21.8825188c0.5890045,0.3662491,1.2414169,0.6663666,1.6399536,1.2940826
			c-0.281044,0.2847061-0.587532,0.1564255-0.8360062,0.0966949c-8.7192688-2.0972824-17.6112289-3.5095901-26.1259384-6.416954
			c-10.7476044-3.6696777-21.2547016-7.9744072-31.7849388-12.2147369
			c-3.4456863-1.3875923-6.8862333-2.7878914-10.3392649-4.1568794c-0.6160576-0.2440681-0.9388393-0.4891357-0.8044472-1.2627258
			c1.357232-7.8155212,4.0310349-15.1323814,8.1457987-21.9229012c0.397687-0.6563473,0.6349096-0.8639355,1.373251-0.3329639
			c12.7481937,9.168848,25.5200291,18.3046513,38.2854691,27.4492512c0.1990433,0.1427155,0.3826447,0.3069878,0.5733414,0.4614601
			C49.1383591,57.5184441,49.0848885,57.5960541,49.0313911,57.6736412z"/>
		<path class="st0" d="M6.5459504,88.8951645c3.163691,0.3131104,6.3542809,0.6482468,9.5486813,0.9420242
			c11.0190964,1.0139923,21.9856987,2.5442963,33.0195122,3.4030991c8.9086075,0.6935425,17.6323853,2.2081757,26.0361862,5.3488312
			c1.5202789,0.5681992,3.1257401,0.9035873,4.6070633,1.5988388c1.3413086,0.629425,2.5384293,1.450737,3.4924622,2.5930328
			c0.9314957,1.1153488,0.7826614,1.5733719-0.6252594,1.7559967c-1.3239136,0.171875-2.6598434,0.2563248-3.9918518,0.3601379
			c-15.447216,1.2037125-30.894558,2.403038-46.3416519,3.6057968c-2.9976864,0.2335358-5.994772,0.4763718-8.9918575,0.7182617
			c-0.593647,0.0479813-1.1060467-0.0051422-1.6142597-0.4411545c-6.260148-5.3723221-11.2745695-11.7185364-15.0194225-19.0686798
			C6.5532956,89.491272,6.411809,89.2790146,6.5459504,88.8951645z"/>
		<path class="st0" d="M80.7033463,77.5717392c-0.7008896-0.1360931-1.1631012-0.4974365-1.6412048-0.8318481
			c-22.7224617-15.8988991-45.4418678-31.80196-68.1833038-47.6734352c-0.8171568-0.5704098-0.8755407-0.932972-0.321804-1.716362
			c1.6899166-2.3912811,3.4799805-4.6966534,5.4233885-6.8867092c0.4158115-0.4685802,0.6822891-0.676899,1.2730026-0.1534939
			C35.7614975,36.7140694,54.5092545,52.846756,72.8540344,69.4352646c2.4152679,2.1841888,4.6787796,4.5360641,7.0061874,6.8171997
			C80.2090759,76.5944672,80.633812,76.8972931,80.7033463,77.5717392z"/>
		<path class="st0" d="M94.4581909,9.7067041c5.79245,3.6684704,10.6337967,7.9788141,14.8021545,13.0458822
			c3.8295593,4.6552906,3.8114395,4.6650925,4.0246658,10.6732025c0.0528717,1.4872131,0.1613159,2.9724693,0.244072,4.4574738
			c-0.5067596,0.0607147-0.4516602-0.6839943-0.8443298-0.4663506c-0.3679581,0.2041588-0.2732239,0.6761475-0.246048,1.0340729
			c0.3065109,4.0371552,0.6746902,8.0701447,0.9383621,12.1099777c0.3393021,5.201458,0.8524246,10.4056244-0.0812759,15.6087837
			c-0.2516632,1.4030075-0.2467728,2.8385773,0.4991684,4.1495285c0.3072357,0.5398026,0.0538406,0.8605042-0.4529114,0.8218231
			c-0.4790878-0.0367203-0.787056,0.1297531-1.1258774,0.3916931c-1.1966171,0.9256287-1.4693375,0.837738-1.8705826-0.674942
			c-0.8338318-3.1448135-1.6387558-6.297226-2.4586182-9.4457207c-4.4051056-16.9128952-8.8111877-33.8257904-13.2155457-50.7389069
			C94.6102295,10.4386787,94.5664139,10.1997509,94.4581909,9.7067041z"/>
		<path class="st0" d="M23.0859013,109.7879028c14.7759342-1.0257492,29.302309-2.0341034,43.8286896-3.0422287
			c0.0150375,0.1363449,0.0299759,0.2727203,0.0450439,0.4088364c-12.5063324,1.5919724-25.0561104,2.8667068-37.5544739,4.5174637
			c0.0210323,0.2237396,0.0420914,0.4475021,0.0631485,0.6712646c16.0046635-0.8227997,31.9872684-2.1161346,48.0143204-2.7244949
			c-0.599762,0.694046-1.3481598,0.9195099-2.098732,1.1398392c-10.6489639,3.1264648-21.2984238,6.250473-31.9450531,9.3845291
			c-0.6189919,0.1821213-1.2025108,0.2384262-1.830452,0.0193329c-6.5590401-2.290184-12.5800076-5.5615692-18.0439072-9.8543167
			C23.4441795,110.2136459,23.3534565,110.0814362,23.0859013,109.7879028z"/>
		<path class="st0" d="M42.4521484,3.3502181c1.6148834-0.6472678,3.1956024-0.9855919,4.7528305-1.4088731
			c0.7597733-0.2063637,0.936409,0.3327088,1.2135391,0.7762911c3.671627,5.8788614,7.3389969,11.7603998,11.0096703,17.6397343
			c4.024292,6.4460812,8.0517921,12.8899555,12.0742531,19.3369884c0.2802887,0.4494781,0.6271896,0.8742142,0.7346573,1.6571274
			c-0.7030945-0.4683304-1.2553787-0.8362579-1.965065-1.3090019c0.1865311,1.0825539,0.7304916,1.7545433,1.251442,2.4397621
			c6.0438538,7.947258,11.9978714,15.9569359,17.0291901,24.6045532c0.2428589,0.4171677,0.6188889,0.7905121,0.3892365,1.4754791
			C73.4621201,46.848671,57.9824638,25.1350689,42.4521484,3.3502181z"/>
		<path class="st0" d="M81.7986145,113.0198822c-0.4316025,0.6815643-0.9212189,0.7439804-1.3295593,0.9156036
			c-6.3841324,2.6828537-12.802536,5.2873917-19.1484985,8.0574036c-2.333271,1.018631-4.588932,1.4810944-7.1376457,1.0624542
			c-3.3336792-0.5473938-6.6540489-1.0928116-10.2116165-2.1714554c3.1258659-0.9079819,5.9436111-1.7557678,8.7780037-2.5438004
			c5.344696-1.4857559,10.6976929-2.9416351,16.0497131-4.4014206
			C73.002388,112.7922134,77.3022079,113.1768112,81.7986145,113.0198822z"/>
		<path class="st0" d="M116.9627838,34.7800636c1.2977219,2.4725761,2.2143021,4.8702507,3.0520401,7.2999611
			c0.925621,2.6848335,1.6052094,5.4355202,2.1748886,8.2165413c0.2891159,1.4120598-0.1679382,2.7340431-0.4032059,4.080471
			c-0.8186569,4.6864014-1.6593323,9.3686142-2.5112534,14.0488739c-0.1189804,0.6524277-0.3253632,1.2923508-0.5353928,1.9234772
			c-0.1099243,0.3300018-0.3745728,0.5642929-0.7547607,0.5613556c-0.4112701-0.0029526-0.5405273-0.3314819-0.6705322-0.6438599
			c-0.1811447-0.4350357-0.2102966-0.8908539-0.1794357-1.3537979c0.7473907-11.1931686,0.2666016-22.3777695-0.2350159-33.5621147
			C116.8952255,35.2407951,116.923378,35.1289101,116.9627838,34.7800636z"/>
		<path class="st0" d="M96.2027054,33.8377876c-3.3159332-9.3886681-6.6321106-18.7773609-9.9541855-28.1834011
			c2.1188354,0.0570307,4.0797424,1.5883131,4.5772018,3.5019903
			C92.9435577,17.3068123,94.8089981,25.5140285,96.2027054,33.8377876z"/>
		<path class="st0" d="M62.7530708,75.923439c2.0098915,0.0112762,9.8708382,3.9426651,12.7637367,6.3831558
			C72.9568405,82.3359756,64.3585281,78.0359039,62.7530708,75.923439z"/>
		<path class="st0" d="M82.4960938,117.3659821c-4.0905228,2.5075989-7.8943863,5.6626892-13.3854599,5.5131073
			c4.5331573-2.0152588,8.878273-3.9470596,13.2236176-5.8788605
			C82.3881226,117.1221619,82.4422226,117.244072,82.4960938,117.3659821z"/>
		<path class="st0" d="M82.5359802,83.3984528c-3.1377182-0.8979492-5.5875092-2.7592392-8.4231567-4.2638474
			C76.235321,79.1639862,81.0923386,81.6296997,82.5359802,83.3984528z"/>
		<path class="st0" d="M52.6286163,73.2442474c2.1900558,0.2839966,4.4593315,0.3640442,6.0892563,2.0808792
			c-0.0563011,0.1434631-0.1124802,0.2869339-0.1686592,0.4303741
			C56.5756721,74.9185181,54.6021576,74.0812531,52.6286163,73.2442474z"/>
		<path class="st0" d="M79.2070618,87.1988831c1.0237961,0.3887405,2.0475922,0.7774963,3.3404236,1.2683411
			c-1.7364197,0.6766434-2.4931335-0.552536-3.5445786-0.9456863C79.070961,87.4140701,79.1390228,87.3063507,79.2070618,87.1988831
			z"/>
		<path class="st0" d="M65.6893158,122.5343933c-0.6704102,0.6125259-1.435318,0.9760666-2.5431976,0.9128952
			C64.0461502,122.9630661,64.802742,122.5777359,65.6893158,122.5343933z"/>
	</g>
	<g id="lavoro_3_">
		<g>
			<path class="st1" d="M166.4240723,72.7730103c-2.3922729,0-3.5404663-1.3432617-3.5404663-4.1257935V4.8413696
				l-5.8369751,1.822876v62.3668213c0,6.0448608,2.0093994,8.3475342,7.2722778,8.3475342
				c6.2199097,0,10.3344116-2.9744263,10.3344116-2.9744263l-1.0524292-3.262085
				C173.6008911,71.1420898,169.3903809,72.7730103,166.4240723,72.7730103z M216.3729858,72.7730103
				c-1.62677,0-2.2008667-0.7675171-2.2008667-2.5905762V44.4681396c0-9.2109375-5.9326782-13.9124756-17.1282959-13.9124756
				c-9.0905151,0-16.2670898,2.9744263-16.2670898,2.9744263l1.3395996,4.7972412c0,0,6.1241455-2.6865234,13.6835938-2.6865234
				c8.8990479,0,12.5352173,3.0704346,12.5352173,9.9786987v9.690979c-1.5310059-0.3838501-4.5931396-0.9595947-8.229248-0.9595947
				c-15.8844604,0-22.0083618,4.9894409-22.0083618,12.3775024c0,7.7717285,5.9326782,11.513855,14.2574463,11.513855
				c8.6121216,0,13.7793579-4.317688,16.1716309-6.8125v0.9596558c0,3.3580322,2.6791992,4.9891968,5.9326782,4.9891968
				c4.975769,0,8.4204712-2.7825317,8.4204712-2.7825317l-1.1481323-3.2622681
				C221.7316284,71.3338013,218.4780884,72.7730103,216.3729858,72.7730103z M208.335144,66.7283936
				c-1.7224731,1.7268677-6.7939453,6.5244141-14.9274902,6.5244141c-5.3586426,0-9.4731445-1.9190063-9.4731445-6.6203613
				c0-4.5096436,4.3059692-7.6760254,16.2670898-7.6760254c4.114502,0,6.6982422,0.4798584,8.1335449,0.7677612V66.7283936z
				 M245.2717285,70.4703369l-14.6403198-38.5714111h-6.4110718l17.989563,44.9041138h6.1239014l17.989563-44.9041138h-6.5067749
				L245.2717285,70.4703369z M293.5950928,30.5556641c-14.9274902,0-21.9128418,11.0339966-21.9128418,23.9871216
				c0,13.3369751,7.368042,23.6994629,22.0083618,23.6994629c14.4490967,0,21.8171387-10.3624878,21.8171387-23.6994629
				C315.5077515,41.5896606,308.618103,30.5556641,293.5950928,30.5556641z M293.6906128,73.1568604
				c-10.6213379,0-16.0756836-7.6757202-16.0756836-18.6140747c0-10.074646,4.8800659-18.9019775,15.9801636-18.9019775
				c11.1956787,0,16.0756836,8.8273315,16.0756836,18.9019775
				C309.6707764,65.4811401,304.2164307,73.1568604,293.6906128,73.1568604z M332.4441528,41.1098633v-9.7867432
				l-5.8369751,1.8230591v43.6568604h5.8369751V46.4831543c1.8181763-3.1663208,6.7939453-10.5544434,13.3964233-10.5544434
				c3.7318726,0,5.3586426,1.1513062,5.3586426,1.1513062l1.722229-5.085144c0,0-2.1051025-1.439209-6.2196045-1.439209
				C338.7595215,30.5556641,333.6880493,38.9990845,332.4441528,41.1098633z M378.0874023,30.5556641
				c-14.9277954,0-21.9129028,11.0339966-21.9129028,23.9871216c0,13.3369751,7.368042,23.6994629,22.008606,23.6994629
				C392.631958,78.2422485,400,67.8797607,400,54.5427856C400,41.5896606,393.1103516,30.5556641,378.0874023,30.5556641z
				 M378.1831055,73.1568604c-10.621582,0-16.0759277-7.6757202-16.0759277-18.6140747
				c0-10.074646,4.8800659-18.9019775,15.9802246-18.9019775c11.1953735,0,16.0756226,8.8273315,16.0756226,18.9019775
				C394.1630249,65.4811401,388.7086792,73.1568604,378.1831055,73.1568604z"/>
		</g>
	</g>
	<g id="technologies_3_">
		<g>
			<path class="st2" d="M194.2297363,118.6392212c-1.6231079,0-2.3188477-0.8005371-2.3188477-2.7348022v-8.6715698h5.0682983
				v-2.3012085h-5.0682983v-4.736084l-2.6831055,0.8673706v3.8687134h-1.9212646l-0.5963745,2.3012085h2.5176392v8.5714722
				c0,3.7020264,1.8218994,5.2362061,4.8031616,5.2362061c2.1864014,0,3.7103271-1.3341675,3.7103271-1.3341675
				l-0.9276123-1.9009399C196.8136597,117.8054199,195.8530273,118.6392212,194.2297363,118.6392212z M207.1157227,104.4647827
				c-5.2006836,0-7.6188965,3.8354492-7.6188965,8.3043823c0,4.5025635,2.4845581,8.2713623,7.784668,8.2713623
				c3.710083,0,5.8634033-2.3012085,5.8634033-2.3012085l-0.828186-1.901123c0,0-1.8881836,1.8676147-5.0021973,1.8676147
				c-3.0806885,0-4.7370605-2.067688-5.0682983-4.9360962h11.2960205c0,0,0.3312378-0.96698,0.3312378-2.234375
				C213.8734741,109.1004639,212.4161377,104.4647827,207.1157227,104.4647827z M211.3560791,111.6352539h-9.1098633
				c0.2982178-2.7680664,1.9213257-4.8359985,4.8695068-4.8359985c2.9483032,0,4.2403564,2.201355,4.2403564,4.5358276V111.6352539z
				 M224.2088013,118.7058105c-3.4118652,0-5.1013184-2.5680542-5.1013184-5.9366455
				c0-3.335022,1.6894531-5.9699097,5.1346436-5.9699097c3.0143433,0,4.140686,1.2340698,4.140686,1.2340698l1.0269775-2.0343628
				c0,0-1.7888184-1.5341797-5.2340088-1.5341797c-5.3001099,0-7.784729,3.8354492-7.784729,8.3043823
				c0,4.5025635,2.5507202,8.2713623,7.7516479,8.2713623c3.7764893,0,5.8964844-2.1344604,5.8964844-2.1344604l-0.828186-2.0678711
				C229.2109985,116.8381958,227.355835,118.7058105,224.2088013,118.7058105z M246.8671265,118.605896
				c-0.4967041,0-0.6954956-0.2667847-0.6954956-0.9006348v-7.303894c0-3.7687988-1.6893921-5.9365845-5.0682983-5.9365845
				c-3.0476074,0-4.9688721,2.3012085-5.300354,2.6346436V95.5263062l-2.6831055,0.8673706v24.1464844h2.6831055v-11.2727051
				c0.5963745-0.7004395,2.2858276-2.4682007,4.6376953-2.4682007c2.2194214,0,3.0476074,1.1339722,3.0476074,3.9022827v7.0705566
				c0,2.1345215,0.6957397,2.9683228,2.4845581,2.9683228c1.9876099,0,3.312561-1.100647,3.312561-1.100647l-0.4967041-1.5342407
				C248.7886963,118.1055298,247.6622925,118.605896,246.8671265,118.605896z M265.1859741,118.605896
				c-0.4639282,0-0.6957397-0.2667847-0.6957397-0.9006348v-7.303894c0-3.7687988-1.6894531-5.9365845-5.0682983-5.9365845
				c-3.0476074,0-4.9688721,2.3012085-5.3001099,2.6346436v-2.3677979l-2.6833496,0.8670654v14.9414673h2.6833496v-11.2727051
				c0.6624756-0.6671143,2.3849487-2.3014526,4.6376953-2.3014526c2.2194214,0,3.0476074,1.100647,3.0476074,3.7355347v7.0705566
				c0,2.1345215,0.7287598,2.9683228,2.5176392,2.9683228c1.9542847,0,3.2794189-1.100647,3.2794189-1.100647l-0.4969482-1.5342407
				C267.1072388,118.1055298,265.980896,118.605896,265.1859741,118.605896z M276.7138062,104.4647827
				c-5.2670898,0-7.784668,3.8354492-7.784668,8.3043823c0,4.5025635,2.5175781,8.2713623,7.784668,8.2713623
				c5.2337646,0,7.7514038-3.7687988,7.7514038-8.2713623C284.46521,108.3002319,281.980896,104.4647827,276.7138062,104.4647827z
				 M276.7138062,118.7058105c-3.4119263,0-5.0682983-2.5680542-5.0682983-5.9366455
				c0-3.335022,1.6563721-5.9699097,5.0682983-5.9699097s5.0682983,2.6348877,5.0682983,5.9699097
				C281.7821045,116.1377563,280.0926514,118.7058105,276.7138062,118.7058105z M291.5874634,118.605896
				c-0.6293945,0-0.9606323-0.3001099-0.9606323-1.0673218V95.5263062l-2.6833496,0.8673706v21.378418
				c0,2.1345215,0.7287598,2.9683228,2.6502686,2.9683228c2.3849487,0,4.0082397-1.2008057,4.0082397-1.2008057
				l-0.4969482-1.5341797C294.1050415,118.0054321,292.6144409,118.605896,291.5874634,118.605896z M303.6117554,104.4647827
				c-5.2668457,0-7.7844849,3.8354492-7.7844849,8.3043823c0,4.5025635,2.5176392,8.2713623,7.7844849,8.2713623
				c5.2340088,0,7.7516479-3.7687988,7.7516479-8.2713623C311.3634033,108.3002319,308.8787842,104.4647827,303.6117554,104.4647827
				z M303.6117554,118.7058105c-3.4119263,0-5.0682983-2.5680542-5.0682983-5.9366455
				c0-3.335022,1.6563721-5.9699097,5.0682983-5.9699097c3.4121704,0,5.0685425,2.6348877,5.0685425,5.9699097
				C308.6802979,116.1377563,306.9906006,118.7058105,303.6117554,118.7058105z M328.7876587,99.3284302h-2.6500244
				c0,3.302002-0.6624756,5.4031982-2.1861572,5.536377c-0.828186-0.2333374-1.6896973-0.4000244-2.7164307-0.4000244
				c-5.1015625,0-7.2216187,3.0015869-7.2216187,6.2367554c0,2.5012207,1.1264038,4.4356689,3.27948,5.4362183
				c-1.0599976,0.5003662-1.9212646,1.3006592-1.9212646,2.534729c0,1.100708,0.4639282,1.8344116,1.2587891,2.3014526
				c-1.3912354,0.6002808-2.8157959,1.7675781-2.8157959,3.9688721c0,2.8681641,2.4515381,4.8359985,7.4204102,4.8359985
				c5.0019531,0,7.3208008-2.1012573,7.3208008-5.1696777c0-2.4346313-1.3582153-4.902771-7.387146-4.902771
				c-1.9542847,0-3.1800537-0.166748-3.1800537-1.2005615c0-1.600769,2.3518677-1.6676025,2.4182129-1.6676025l0.8612671,0.0332642
				c4.4719238,0,6.8901367-2.5012207,6.8901367-6.1699219c0-1.8343506-0.6624756-3.5686035-2.1200562-4.736084
				C327.8270264,104.9316406,328.7876587,102.4970093,328.7876587,99.3284302z M318.651123,121.940979
				c0.795105,0.0668335,1.6563721,0.1000977,2.5175781,0.1000977c3.9752197,0,4.7040405,1.3674927,4.7040405,2.5680542
				c0,1.8010864-1.3915405,2.8348999-4.6376953,2.8348999c-3.1470337,0-4.7370605-1.0005493-4.7370605-2.8348999
				C316.4979858,123.0083008,317.7568359,122.2746582,318.651123,121.940979z M321.2681274,114.5369873
				c-3.0145874,0-4.5713501-1.3342285-4.5713501-3.8354492c0-2.0010986,1.3582153-3.9022827,4.5050049-3.9022827
				c2.9151611,0,4.2733765,1.9011841,4.2733765,3.9022827C325.4751587,113.2027588,323.9844971,114.5369873,321.2681274,114.5369873
				z M332.7959595,98.1611938c-1.0933228,0-1.8882446,0.8671265-1.8882446,2.0010986
				c0,1.1339111,0.7949219,2.0010376,1.8882446,2.0010376c1.0930176,0,1.8881836-0.8671265,1.8881836-2.0010376
				C334.6841431,99.0283203,333.8889771,98.1611938,332.7959595,98.1611938z M331.5040894,120.5401611h2.6831055v-15.6085205
				h-2.6831055V120.5401611z M345.350708,104.4647827c-5.2009277,0-7.6191406,3.8354492-7.6191406,8.3043823
				c0,4.5025635,2.4845581,8.2713623,7.784668,8.2713623c3.710083,0,5.8634033-2.3012085,5.8634033-2.3012085l-0.828186-1.901123
				c0,0-1.8881836,1.8676147-5.0019531,1.8676147c-3.0808716,0-4.7370605-2.067688-5.0685425-4.9360962h11.2960205
				c0,0,0.3314819-0.96698,0.3314819-2.234375C352.1084595,109.1004639,350.6508789,104.4647827,345.350708,104.4647827z
				 M349.5908203,111.6352539h-9.1098633c0.2982178-2.7680664,1.9215698-4.8359985,4.869751-4.8359985
				c2.947998,0,4.2401123,2.201355,4.2401123,4.5358276V111.6352539z M361.6486816,111.7353516
				c-2.1531372-0.4002686-4.0413208-0.6671143-4.0413208-2.4678955c0-1.4676514,1.3248901-2.4682007,3.9752197-2.4682007
				c3.1137085,0,4.8031616,1.3006592,4.8031616,1.3006592l0.9936523-1.9677734c0,0-2.086731-1.6673584-5.8301392-1.6673584
				c-4.8695068,0-6.6913452,2.4346313-6.6913452,4.8026733c0,4.0354004,3.6437378,4.4024048,6.4595337,5.0026245
				c1.9542847,0.3670044,3.5112915,0.7670288,3.5112915,2.4346313c0,1.1339722-1.3912354,2.0010986-3.7764282,2.0010986
				c-3.4782715,0-5.6313477-1.7675171-5.6313477-1.7675171l-0.9275513,2.1011963c0,0,2.2857666,2.0010376,6.5922241,2.0010376
				c4.1737061,0,6.4925537-1.6343384,6.4925537-4.3358154C367.578186,113.0695801,364.3650513,112.2357788,361.6486816,111.7353516z
				"/>
		</g>
	</g>
</g>
</svg>
