<?xml version="1.0" encoding="utf-8"?>
<!-- Generator: Adobe Illustrator 23.0.4, SVG Export Plug-In . SVG Version: 6.00 Build 0)  -->
<svg version="1.1" id="Layer_1" xmlns="http://www.w3.org/2000/svg" xmlns:xlink="http://www.w3.org/1999/xlink" x="0px" y="0px"
	 viewBox="0 0 16 16" style="enable-background:new 0 0 16 16;" xml:space="preserve">
<style type="text/css">
	.st0{fill-rule:evenodd;clip-rule:evenodd;}
</style>
<title>grafana_mask_icon</title>
<desc>Created with Sketch.</desc>
<g>
	<path class="st0" d="M11.0636015,0.7050138c-0.0332613-0.0986373-0.0878-0.1466626-0.1817045-0.1822199
		c-0.8382301-0.317446-1.7065525-0.4803943-2.6004181-0.5090315C7.728148-0.0039538,7.178843,0.0411936,6.6338468,0.1429001
		c0.0028114,0.0720296,0.0485492,0.1154886,0.0790248,0.1647532c0.4101195,0.6631299,0.8215618,1.325428,1.2333283,1.987535
		c1.4412656,2.3175151,2.8712535,4.6422167,4.4113393,6.896594c0.102314,0.1497736,0.2243071,0.2547245,0.4203339,0.3162489
		c-0.0472689-0.1077785-0.0798397-0.1977072-0.1244135-0.2812319c-0.3540182-0.6637287-0.6889887-1.3377047-1.1020613-1.9689951
		c-0.2582417-0.3947158-0.4886122-0.8078461-0.6235638-1.2630386c-0.1102819-0.372025-0.2732296-0.7172518-0.4704294-1.0486712
		c-0.1439676-0.2419643-0.2892666-0.4830971-0.4310389-0.7262931C9.9951925,4.1663113,9.9503698,4.1145263,9.9951591,4.0264359
		c0.0393009,0.0625391,0.079998,0.1242218,0.117651,0.1877093c1.0710793,1.8070951,2.1519308,3.6084423,3.1886663,5.4356904
		c0.0562515,0.0991364,0.1161623,0.1964016,0.199995,0.2748442c0.0503206,0.0470438,0.1018724,0.1079025,0.1828184,0.0720959
		c0.0871429-0.0385685,0.1044102-0.1171436,0.1000013-0.2038708c-0.0065041-0.127964-0.0617743-0.2398348-0.1152973-0.3523378
		c-0.6627474-1.3929405-1.3258018-2.7856994-1.987402-4.1791811c-0.0484161-0.1018977-0.1094246-0.2026644-0.098321-0.3384976
		c0.1112385,0.085712,0.1623497,0.1931992,0.2151737,0.2989812c0.6648684,1.331799,1.3291044,2.6639228,1.9947958,3.995306
		c0.0387354,0.077528,0.0617743,0.1722221,0.163805,0.2070484c0.0339689-0.0946703-0.0089827-0.1684465-0.0336189-0.2436781
		C12.996316,6.3465295,12.0164967,3.5303214,11.0636015,0.7050138z"/>
	<path class="st0" d="M9.5827942,6.4550982c-1.388566-1.9428616-2.7774487-3.8854737-4.1665974-5.8278947
		C5.3685961,0.5606385,5.3414807,0.481747,5.2174835,0.5303462C4.1592803,0.9449739,3.2248583,1.5469203,2.4179351,2.3478546
		C2.3520772,2.4132135,2.3515198,2.4454024,2.423774,2.5077503C4.4044638,4.2167821,6.3829656,5.9283834,8.362175,7.6391282
		C8.3869028,7.660521,8.416255,7.6765571,8.4434452,7.695097C8.4237661,7.6334143,8.3898554,7.5923343,8.3549719,7.5520859
		c-0.6988535-0.8063245-1.3979483-1.6124654-2.0965276-2.419014C6.1999807,5.0656166,6.1275434,5.0037098,6.1389217,4.8957815
		C6.223361,4.8952079,6.2697644,4.9496207,6.3174906,4.9986691C7.3257637,6.035172,8.3519192,7.0542579,9.2879715,8.1594629
		c0.6588383,0.7779121,1.3580914,1.5184364,2.1913385,2.1180038c0.0482836,0.0347252,0.0952358,0.0734606,0.1482515,0.0991697
		c0.1162453,0.0564423,0.1708498,0.0178404,0.1735783-0.1101236c0.0028276-0.1320572-0.0941544-0.201766-0.172472-0.2807827
		C10.1036367,8.4465923,8.5773907,6.9086099,7.0521011,5.36973c-0.048142-0.0485663-0.1106148-0.0886316-0.1054745-0.1828771
		c1.2374458,1.1332936,2.4199209,2.3251672,3.6641693,3.4534535c-0.1045094-0.2577095-0.318469-0.4518652-0.4105272-0.7264509
		c0.1118708-0.0014305,0.1496744,0.0691686,0.195137,0.1265345c0.4707794,0.5943604,0.9406691,1.1894197,1.4113903,1.7838221
		c0.0555773,0.0701838,0.1050081,0.1505308,0.2115717,0.161768c0.0186062-0.1059904-0.0417366-0.1785021-0.0943117-0.2521791
		C11.1440153,8.6406231,10.363658,7.5477023,9.5827942,6.4550982z"/>
	<path class="st0" d="M5.6952329,11.5731096c1.3724051,0.1505051,2.7448106,0.3011684,4.117806,0.4465008
		c0.2160892,0.0228481,0.4330015,0.0777102,0.6682701,0.0377693c-0.0567331-0.0985622-0.1438093-0.1176424-0.2208214-0.1479931
		c-0.8804493-0.3470402-1.7955418-0.56322-2.7266531-0.7185497c-0.1628819-0.027173-0.3289409-0.0462532-0.4651151-0.1710157
		c0.2981491,0.0333366,0.596282,0.0666647,0.8944316,0.1000013c0.0022621-0.0147638,0.0045161-0.0295525,0.006762-0.0443497
		c-1.2334867-0.2860556-2.4669561-0.5721359-3.7004256-0.8581915c0.0036926-0.0174665,0.0074105-0.0349255,0.0111122-0.0523834
		c1.7245016,0.3442116,3.4490037,0.6884565,5.1734972,1.0326681c-0.1392345-0.2375479-0.357419-0.3342476-0.5763025-0.4262056
		c-0.3811922-0.1602201-0.7864704-0.238122-1.1854281-0.3374577c-0.6700253-0.1668491-1.2907858-0.4698229-1.9357667-0.7058153
		C4.0433922,9.1012468,2.3002093,8.5639935,0.573478,7.9776592C0.5146982,7.9576888,0.4436251,7.9564829,0.3802457,7.8478813
		c2.7536855,0.9001369,5.4699087,1.7880478,8.1861315,2.6759253c0.0053654-0.0147305,0.0107298-0.0294609,0.016078-0.0441828
		c-0.0736017-0.0975227-0.1782188-0.1491413-0.2892914-0.1946964C5.989656,9.3402586,3.6872284,8.392952,1.3712517,7.4790411
		C0.9646587,7.3185968,0.5583318,7.157495,0.1429805,6.9931493C0.05741,7.5860209,0.0530017,8.1643209,0.1074564,8.7427788
		c0.0703495,0.7473106,0.2398021,1.4721155,0.5133399,2.1722584c0.0295022,0.0755148,0.0675216,0.1098661,0.1501227,0.1165361
		c0.2050099,0.0164776,0.4091797,0.0432348,0.6136823,0.0658331C2.8214757,11.2560377,4.2582502,11.415493,5.6952329,11.5731096z"/>
	<path class="st0" d="M0.2815003,6.8602939C0.729265,7.0378141,1.175416,7.2193937,1.6222242,7.3993263
		C2.9877093,7.9491801,4.3502002,8.5073929,5.743865,8.9832458c1.1041327,0.3770075,2.2571802,0.5601425,3.3878288,0.8321085
		c0.0322218,0.0077438,0.0719633,0.0243788,0.1084108-0.0125427C9.1884193,9.7214165,9.1038218,9.6824989,9.027442,9.635006
		C7.5053134,8.6889057,5.9826694,7.7435713,4.4605403,6.7974381C4.3968949,6.7578802,4.3207645,6.7271886,4.3255138,6.6112175
		C5.3349266,7.2096786,6.3443308,7.8081403,7.3537436,8.406601C7.3206983,8.2893658,7.2325077,8.2445345,7.1545143,8.1895895
		C5.7907429,7.2292666,4.426239,6.2699585,3.0620263,5.3102098C2.9910946,5.2603045,2.9137418,5.2156396,2.8780763,5.1332631
		c0.0104966-0.0134912,0.0209684-0.0269818,0.0314651-0.040473c1.1733758,0.7890568,2.3467515,1.5781469,3.5201356,2.367229
		c0.0069366-0.010056,0.0138736-0.0201201,0.0208101-0.0301843c-0.0247278-0.0200367-0.0485406-0.041338-0.0743499-0.0598445
		c-1.655334-1.185802-3.311491-2.3704729-4.9645872-3.5594189c-0.0957428-0.0688522-0.126501-0.0419369-0.1780695,0.0431762
		c-0.5335764,0.8805411-0.8803,1.829344-1.0562901,2.8428075C0.1597569,6.7968645,0.2016189,6.8286457,0.2815003,6.8602939z"/>
	<path class="st0" d="M10.4140043,12.972971c-0.1920843-0.0901537-0.4002724-0.1336451-0.5974131-0.2073221
		c-1.0897436-0.407258-2.220983-0.6036682-3.3761849-0.6935968c-1.4307857-0.1113634-2.852855-0.3098021-4.2817364-0.4412937
		c-0.4142286-0.0380945-0.827958-0.0815535-1.2382023-0.1221504c-0.0173919,0.0497713,0.0009482,0.0772943,0.0155038,0.1058311
		c0.4856094,0.9531202,1.1358472,1.7760458,1.9476193,2.4726954c0.0658996,0.0565338,0.1323397,0.0634298,0.2093184,0.0572081
		c0.3886437-0.0313654,0.7772875-0.0628557,1.1660061-0.0931396c2.0030637-0.1559696,4.0061688-0.3114901,6.0092492-0.467577
		c0.1727304-0.0134573,0.3459587-0.0244122,0.5176401-0.0467024c0.1825695-0.0236807,0.2018661-0.0830755,0.0810795-0.2277002
		C10.7431698,13.1610966,10.5879402,13.0545912,10.4140043,12.972971z"/>
	<path class="st0" d="M1.4823238,3.7504442c2.9489474,2.0581005,5.8950419,4.1202936,8.841527,6.1819534
		c0.0619984,0.0433598,0.1219349,0.0902205,0.2128201,0.1078701c-0.009016-0.0874586-0.0640945-0.1267252-0.109334-0.1710749
		C10.125536,9.57339,9.8320198,9.2684116,9.5188236,8.9851837c-2.3788152-2.151082-4.8098893-4.2430515-7.2098894-6.3702288
		c-0.0765958-0.0678709-0.111155-0.0408556-0.1650691,0.0199039C1.8918529,2.9188514,1.6597278,3.2177994,1.4405948,3.5278759
		C1.3687898,3.6294661,1.3763587,3.6764767,1.4823238,3.7504442z"/>
	<path class="st0" d="M14.7630291,8.5617399c0.1210699-0.6747165,0.0545292-1.3495493,0.0105381-2.0240407
		c-0.034193-0.5238533-0.0819359-1.0468249-0.121685-1.5703373c-0.0035181-0.0464115-0.0158033-0.1076117,0.0319061-0.1340866
		c0.0509195-0.0282211,0.0437746,0.0683451,0.1094913,0.0604687c-0.0107374-0.1925588-0.0247946-0.385159-0.0316477-0.5780087
		c-0.0276556-0.7790928-0.0253019-0.7803652-0.5218906-1.3840251c-0.5405302-0.6570663-1.1683187-1.2159945-1.9194393-1.6916977
		c0.0140314,0.0639367,0.0197124,0.0949194,0.027647,0.1253282c0.5711298,2.193177,1.1424761,4.3863206,1.7136984,6.5794644
		c0.1063137,0.4082727,0.2106905,0.8170538,0.3188181,1.2248526c0.0520258,0.1961517,0.0873919,0.2075472,0.2425632,0.0875168
		c0.0439329-0.0339603,0.0838737-0.0555525,0.145997-0.050787c0.0657082,0.0050163,0.0985708-0.0365715,0.0587301-0.1065722
		C14.7310238,8.9298229,14.7303915,8.7436686,14.7630291,8.5617399z"/>
	<path class="st0" d="M10.1190319,14.1958942c-2.0782785,0.0788832-4.1507854,0.2465973-6.2261534,0.3532944
		c-0.0027366-0.0290194-0.0054646-0.0580397-0.0081928-0.0870514c1.6206994-0.2140589,3.2480617-0.3793526,4.869801-0.5857849
		c-0.001955-0.0176582-0.0038929-0.0353413-0.0058479-0.0530157c-1.8836737,0.1307259-3.7673478,0.2614775-5.6833858,0.3944912
		c0.0346923,0.0380602,0.0464532,0.0552034,0.062057,0.0674543c0.7085185,0.5566578,1.4892747,0.9808674,2.3398063,1.2778444
		c0.0814285,0.0284119,0.1570926,0.0211096,0.2373567-0.002512c1.3805814-0.4064016,2.761529-0.8114977,4.1424093-1.216918
		C9.9442062,14.3151255,10.041255,14.2858896,10.1190319,14.1958942z"/>
	<path class="st0" d="M11.5545092,8.6806545c-0.6524258-1.121366-1.4244976-2.1599979-2.2082233-3.1905456
		C9.278739,5.4012532,9.2081985,5.3141189,9.1840115,5.1737361c0.0920248,0.0613084,0.1636467,0.1090174,0.2548151,0.1697435
		C9.4248943,5.2419562,9.3799047,5.1868777,9.3435574,5.1285968c-0.5215988-0.836009-1.0438557-1.6716025-1.5656958-2.5074871
		C7.3018675,1.858727,6.826314,1.0960531,6.350203,0.3337203C6.3142633,0.2761964,6.2913651,0.2062961,6.1928358,0.2330535
		C5.990912,0.2879407,5.7859349,0.3318156,5.5765252,0.4157476C7.590385,3.2406476,9.597682,6.0563149,11.6049881,8.8719826
		C11.6347647,8.7831602,11.5860071,8.7347441,11.5545092,8.6806545z"/>
	<path class="st0" d="M10.6786919,14.6369305C10.0956345,14.6572742,9.5380621,14.6074028,8.993,14.7560701
		c-0.6940136,0.18929-1.3881507,0.3780804-2.0812154,0.5707474c-0.3675423,0.1021805-0.7329221,0.212121-1.1382675,0.3298559
		c0.4613223,0.1398754,0.8918862,0.2105989,1.324172,0.2815809c0.3304963,0.0542879,0.6229978-0.005681,0.9255557-0.1377716
		c0.8229008-0.3591919,1.6551924-0.6969318,2.4830418-1.0448284C10.5592365,14.7334051,10.6227322,14.7253036,10.6786919,14.6369305
		z"/>
	<path class="st0" d="M15.9163265,6.5034142c-0.0738764-0.3606219-0.1620007-0.71731-0.2820215-1.065464
		c-0.1086349-0.3150673-0.2274923-0.6259756-0.395772-0.9466071c-0.0051069,0.0452385-0.0087585,0.0597444-0.0081263,0.0740337
		c0.0650511,1.4503074,0.1273909,2.9006476,0.0304747,4.3520942c-0.0040007,0.0600357-0.0002155,0.1191397,0.0232725,0.1755495
		c0.01686,0.0405064,0.0336199,0.0831089,0.0869513,0.0834913c0.0492983,0.0003824,0.0836163-0.0300016,0.0978727-0.0727863
		c0.0272312-0.0818443,0.053997-0.1648197,0.069418-0.2494259c0.1104727-0.6069031,0.2194901-1.2140565,0.3256464-1.8217587
		C15.8945513,6.8579483,15.9538136,6.6865244,15.9163265,6.5034142z"/>
	<path class="st0" d="M11.8492651,1.1686484c-0.0645027-0.2481529-0.3187857-0.4467167-0.5935373-0.454111
		c0.4307804,1.2197043,0.8608036,2.4371626,1.2907858,3.6546214C12.3657904,3.2897956,12.1238928,2.2255373,11.8492651,1.1686484z"
		/>
	<path class="st0" d="M9.8641167,10.6542501c-0.3751354-0.3164654-1.3944798-0.8262615-1.6551085-0.8277254
		C8.4171867,10.1004534,9.5321569,10.6580591,9.8641167,10.6542501z"/>
	<path class="st0" d="M9.0334063,15.9153976c0.7120447,0.0193958,1.2053061-0.3897333,1.7357302-0.7148981
		c-0.006978-0.0158119-0.013998-0.0316153-0.0209846-0.0474262C10.1846819,15.4035711,9.6212378,15.6540785,9.0334063,15.9153976z"
		/>
	<path class="st0" d="M9.6820555,10.2429237c0.3677082,0.1951122,0.685379,0.43647,1.0922546,0.552907
		C10.5871077,10.5664749,9.9572897,10.2467337,9.6820555,10.2429237z"/>
	<path class="st0" d="M7.6857538,9.7489386C7.4743891,9.5263128,7.1801324,9.5159321,6.8961391,9.4791021
		c0.2559133,0.1085434,0.5118265,0.2171125,0.7677393,0.3256474C7.6711645,9.7861519,7.6784511,9.7675457,7.6857538,9.7489386z"/>
	<path class="st0" d="M10.7758074,11.4531126c-0.1676474-0.0636454-0.3004036-0.1140575-0.4331675-0.1644697
		c-0.0088167,0.0139399-0.0176497,0.0279055-0.026475,0.0418453C10.4525146,11.3814659,10.5506363,11.5408545,10.7758074,11.4531126
		z"/>
	<path class="st0" d="M8.5897589,15.8706989c-0.1149645,0.0056229-0.2130785,0.0555859-0.3297892,0.1183834
		C8.4036379,15.9972668,8.5028238,15.9501314,8.5897589,15.8706989z"/>
</g>
</svg>
