<?xml version="1.0" encoding="utf-8"?>
<!-- Generator: Adobe Illustrator 23.0.4, SVG Export Plug-In . SVG Version: 6.00 Build 0)  -->
<svg version="1.1" id="Layer_1" xmlns="http://www.w3.org/2000/svg" xmlns:xlink="http://www.w3.org/1999/xlink" x="0px" y="0px"
	 viewBox="0 0 351 365" style="enable-background:new 0 0 351 365;" xml:space="preserve">
<style type="text/css">
	.st0{fill-rule:evenodd;clip-rule:evenodd;fill:#B30140;}
</style>
<g id="Layer_1_1_">
</g>
<g>
	<path class="st0" d="M219.5384674,94.7930679c-0.9886627,1.944397,0.0007172,3.0872574,0.688736,4.2679291
		c3.1293793,5.3680954,6.3364563,10.6905518,9.5141144,16.0313034c4.3527374,7.3152771,7.9494324,14.935379,10.383667,23.1468353
		c2.9786987,10.0473785,8.0636597,19.166275,13.7638245,27.8787079
		c9.1174774,13.9341583,16.5112457,28.8106842,24.3254242,43.4608459c0.9837952,1.8435822,1.7027283,3.8286591,2.7460632,6.2075195
		c-4.3268127-1.3579865-7.0195923-3.674469-9.2779541-6.9803467
		c-33.9936676-49.7601318-65.5574036-101.0723267-97.369812-152.2260895
		c-9.0887756-14.6144981-18.1705017-29.23316-27.2228241-43.8701172c-0.6726685-1.0874662-1.6823578-2.0467129-1.7443542-3.6365833
		c12.0295715-2.2450466,24.1540833-3.2414484,36.36763-2.8504744c19.7299652,0.6320596,38.8961639,4.2287493,57.3980865,11.2357197
		c2.0726929,0.7848186,3.2764587,1.8449478,4.0107727,4.0220318
		c21.0328827,62.3621445,42.6599579,124.5232391,63.1238556,187.0774689c0.5437317,1.660614,1.4917908,3.289093,0.7420654,5.3785553
		c-2.2520752-0.7686615-2.7607117-2.8588562-3.6156311-4.5699921
		c-14.6936646-29.3872833-29.355072-58.7907104-44.0304871-88.1871033c-1.1659851-2.3347244-2.2941284-4.7073364-4.7493134-6.599205
		c-0.2452545,2.9982758,1.1014557,5.22229,2.1700592,7.4715576c14.603241,30.7578812,29.238739,61.4996109,43.8672485,92.2455826
		c1.1813965,2.4832611,2.4013062,4.9525146,2.5449524,7.7770844c0.0973511,1.9142609-0.283783,3.6484985-2.2072144,4.4998322
		c-1.7867737,0.7904053-2.9247437-0.5528564-4.0353088-1.5912476c-1.8505554-1.7314301-3.1727905-3.8783722-4.4144592-6.0666504
		c-22.8834229-40.3322144-46.7408142-80.0926819-70.3823853-119.9799347
		C221.3041992,97.5349045,220.4059448,96.1734238,219.5384674,94.7930679z"/>
	<path class="st0" d="M152.2492828,120.4063644c-0.1135101,2.080368,1.2654877,2.9647064,2.3280487,4.0367432
		c33.6671906,33.9670334,67.3554077,67.9144974,101.0170135,101.8871994
		c1.7285614,1.7440643,3.8691864,3.2827759,3.806839,6.1976929c-0.0602722,2.8244934-1.2654114,3.6765442-3.8313904,2.4307251
		c-1.1701965-0.5675659-2.2064972-1.4224091-3.2722931-2.1889954c-18.3919373-13.2340698-33.8261871-29.5792999-48.368515-46.749939
		c-20.6611481-24.3948212-43.3112488-46.8886414-65.5664978-69.7671204
		c-1.0534515-1.0825882-2.0775604-2.283638-3.9413757-2.2710114c-0.2512054,2.38237,1.3477783,3.7487335,2.6380768,5.2377243
		c15.4195557,17.8027115,30.8503723,35.5962143,46.2758789,53.3939896c0.7701111,0.8884888,1.5184784,1.7951508,1.9528656,3.1566315
		c-0.6001282-0.4091949-1.2478943-0.7630768-1.7937927-1.2353516
		C139.8077087,136.7740479,96.1369858,98.9944077,52.4179802,61.2716064
		c-1.5948219-1.376194-1.5825539-2.0866776-0.1289406-3.5293961c17.8110352-17.6786385,38.4360886-30.9653053,61.7935181-40.1171417
		c2.7369614-1.0727577,3.3353653,0.6685085,4.3860245,2.1378384
		c30.6622314,42.8743477,61.3185272,85.7529297,91.9677734,128.6371155
		c17.2357941,24.1166229,34.4604034,48.2402802,51.6779633,72.3695374c1.1603699,1.6263275,2.4923706,3.2267303,2.0817261,5.5663452
		c-2.3522034-0.2480469-3.4432068-2.0215302-4.6700745-3.5707092
		c-10.3899841-13.1199341-20.7617493-26.2545471-31.1530914-39.3736725
		c-1.0034485-1.2662048-1.8379211-2.8245697-4.3071747-2.7929993c2.0319977,6.0610046,6.7546844,10.3464966,9.0614319,16.0347443
		C205.6632233,171.7290344,179.5628815,145.4213257,152.2492828,120.4063644z"/>
	<path class="st0" d="M207.5957794,253.0787811c-38.0641327-7.597702-76.1284637-15.1960449-114.1928864-22.7937469
		c-0.0816498,0.3853912-0.1636658,0.7707672-0.2452469,1.1562042c27.2259827,6.3139954,54.451973,12.6286316,81.6783066,18.942627
		c-0.0497131,0.3265533-0.0994415,0.6530914-0.149231,0.9789124c-6.5809937-0.7357483-13.1615448-1.4714813-19.7425232-2.2072296
		c3.0056,2.7537537,6.6709595,3.1748657,10.2662811,3.7747192c20.5521698,3.4284973,40.7505188,8.2002563,60.1844177,15.860321
		c1.6998749,0.6698608,3.6218719,1.0909729,4.8740845,3.2666321c-5.1928711,0.8814697-9.9807892-0.3293457-14.750473-0.8338318
		c-30.3055573-3.2077942-60.5981293-6.5333252-90.89077-9.8553467c-31.718132-3.4789734-63.4314613-6.9985962-95.1471558-10.5
		c-4.5138893-0.4988861-9.020462-1.0895386-13.5455446-1.4531708c-1.8232784-0.147171-2.6623411-0.9053802-3.3136301-2.5722961
		c-6.0376062-15.4539185-9.7778711-31.452301-11.3306465-47.947403C0.08871,186.1270599,0.1860768,173.362381,2.0748646,160.276123
		c9.1679115,3.627533,18.1364956,7.1836243,27.1110363,10.7249146
		c51.1198235,20.1724548,101.9405212,41.0820007,152.7849579,61.9333496
		c2.4517517,1.0055389,4.7608643,2.1448822,6.3854675,4.2974243c-0.118103,0.3251038-0.236496,0.6502075-0.3548889,0.9753113
		c-59.9542389-19.5977783-119.9085388-39.1963654-180.6895599-59.0646515
		c1.3989396,2.3970795,2.9677873,2.4236908,4.2651277,2.8644714
		c38.1134911,12.9418945,76.5902634,24.8004913,114.4051971,38.6364899
		c14.2364349,5.2090149,27.9382629,11.8964691,42.7275391,15.5793304c8.806076,2.1925201,17.7515564,3.9120483,26.1654968,7.4484558
		C199.7065582,245.7011414,204.5224457,247.8354645,207.5957794,253.0787811z"/>
	<path class="st0" d="M140.8387756,170.5812988c-25.8995819-17.4172668-51.7991638-34.8345184-77.6987457-52.2510681
		c-0.2315445,0.2977753-0.4627991,0.5956116-0.6944122,0.8933792c0.7872581,1.8183289,2.4945145,2.8041992,4.0602036,3.9057236
		c30.1118317,21.1842194,60.2299728,42.3585968,90.3319778,63.5554352c1.7216797,1.2129059,3.6681519,2.2022858,4.397583,4.7900085
		c-22.2804413-13.20961-44.560585-26.4191437-66.8410263-39.6287537c-0.1047516,2.5596771,1.5755234,3.2372131,2.980423,4.1102905
		c33.5974503,20.8836517,67.2060928,41.7497864,100.8036118,62.6326447
		c1.6858673,1.0482941,3.5532074,1.9073029,4.6939087,3.7039642c-0.8043976,0.8148804-1.6816406,0.4477234-2.3928375,0.2767487
		c-24.9564819-6.0028839-50.4072571-10.0452271-74.7782516-18.3667603
		c-30.7620392-10.503418-60.835701-22.8245239-90.9755859-34.9612885
		c-9.8623219-3.9715881-19.7099361-7.9795685-29.5932827-11.8979187c-1.7632945-0.6985779-2.6871674-1.4000092-2.3025074-3.6141968
		c3.8847008-22.3697662,11.5377216-43.3122482,23.315094-62.7482376c1.1382656-1.8786087,1.8172512-2.4727707,3.9305496-0.9530106
		c36.4881744,26.2432785,73.044014,52.391983,109.5815506,78.5658722c0.5697174,0.4084778,1.0952148,0.8786774,1.641037,1.3208008
		C141.1449432,170.137085,140.9918976,170.3592224,140.8387756,170.5812988z"/>
	<path class="st0" d="M19.2359715,259.9442749c9.0551891,0.8961487,18.1873684,1.8554077,27.3304539,2.6962585
		c31.5391121,2.9022827,62.9279747,7.2823486,94.5092163,9.7404175
		c25.4984131,1.9850769,50.4678192,6.3203125,74.5213776,15.3095703c4.3513641,1.6263123,8.9465485,2.5862732,13.1864166,4.5762329
		c3.8391418,1.8015442,7.265564,4.1523438,9.9962158,7.4218445c2.666153,3.1923523,2.2401581,4.5033264-1.7896271,5.0260315
		c-3.7893372,0.4919434-7.6130524,0.7336731-11.4255676,1.0307922
		c-44.2133789,3.4453125-88.427124,6.8780518-132.6401367,10.3206177
		c-8.5800552,0.6684265-17.1583862,1.3634949-25.7367096,2.0558167c-1.6991501,0.1373291-3.1657486-0.0147095-4.6203728-1.2626953
		c-17.9179382-15.37677-32.2703323-33.5410461-42.9889374-54.5788269
		C19.2569942,261.6504517,18.8520279,261.0429077,19.2359715,259.9442749z"/>
	<path class="st0" d="M231.4909821,227.5340881c-2.0061035-0.3895416-3.3290558-1.4237671-4.6974945-2.3809357
		C161.7567291,179.6469574,96.7287216,134.1288452,31.6376534,88.701149
		c-2.3388863-1.6326447-2.5059948-2.6703796-0.9210758-4.9126129c4.836916-6.8443832,9.9604778-13.4428711,15.5229473-19.7112961
		c1.1901436-1.3411827,1.9528618-1.937439,3.6436157-0.4393387
		c52.9742432,46.9524231,106.6344986,93.1277695,159.1413574,140.6077881
		c6.9130554,6.2516479,13.3917236,12.9832306,20.0532684,19.5123291
		C230.0762634,224.7369232,231.2919464,225.6036835,231.4909821,227.5340881z"/>
	<path class="st0" d="M270.8604126,33.2892189c16.5792847,10.4999809,30.4362793,22.8371468,42.3670654,37.340229
		c10.9610596,13.3244781,10.9091797,13.3525314,11.5195007,30.5490799c0.1513367,4.2567368,0.461731,8.5078659,0.6985779,12.7582855
		c-1.45047,0.1737823-1.2927551-1.9577408-2.4166565-1.3348007c-1.0531921,0.5843506-0.7820435,1.9352875-0.7042542,2.9597473
		c0.8773193,11.5552444,1.9311218,23.0985641,2.685791,34.6614609c0.9711609,14.8877258,2.4398499,29.7832184-0.232605,44.675827
		c-0.7203064,4.0157166-0.7063293,8.1246338,1.4287109,11.8768768c0.8793945,1.5450287,0.1541443,2.4629517-1.2963257,2.3522339
		c-1.3712463-0.1051178-2.2527161,0.3713837-3.2225037,1.1211243c-3.4249878,2.649353-4.2055664,2.3977966-5.3540344-1.931839
		c-2.3865967-9.0011597-4.6904602-18.0240631-7.0371094-27.0357666
		c-12.6083984-48.4084778-25.2196045-96.8169556-37.8258362-145.2260742
		C271.2955933,35.3842926,271.170166,34.700428,270.8604126,33.2892189z"/>
	<path class="st0" d="M66.5769958,319.743927c42.2920227-2.9359131,83.869751-5.822052,125.4474792-8.70755
		c0.043045,0.3902588,0.0858154,0.7806091,0.1289368,1.1701965c-35.7959137,4.5565796-71.7161789,8.2051697-107.4892807,12.9299927
		c0.0601959,0.6403809,0.1204681,1.2808533,0.1807404,1.9212952c45.8089218-2.355011,91.5546951-6.0568237,137.4276733-7.7980957
		c-1.7166443,1.9865112-3.8587189,2.6318359-6.0070343,3.2624817
		c-30.4797058,8.9486389-60.9608307,17.8902283-91.4338608,26.8605957
		c-1.7716904,0.5213013-3.4418564,0.6824341-5.2391586,0.0553284
		c-18.7734375-6.5549927-36.0067902-15.9184265-51.6456909-28.2052307
		C67.6024704,320.9624939,67.342804,320.5840759,66.5769958,319.743927z"/>
	<path class="st0" d="M122.007515,15.0955372c4.6221619-1.8526249,9.1465225-2.8209839,13.6036606-4.0325089
		c2.1746521-0.5906582,2.6802063,0.9522867,3.4734192,2.2219191c10.5090179,16.8266106,21.0058441,33.6608887,31.5121307,50.4888535
		c11.5184326,18.4501228,23.0460358,36.8939323,34.5592194,55.3467751c0.8022461,1.2865067,1.7951508,2.5021973,2.1027527,4.7430649
		c-2.0124207-1.3404617-3.5931854-2.3935547-5.6244659-3.7466507c0.533905,3.0985107,2.0908356,5.0218964,3.5819092,6.983139
		c17.2988739,22.7468262,34.3405762,45.6723175,48.741333,70.4237213c0.6951294,1.1940308,1.7713928,2.262619,1.11409,4.2231598
		C210.7649689,139.5978088,166.4587555,77.4486389,122.007515,15.0955372z"/>
	<path class="st0" d="M234.625885,328.9945679c-1.2353516,1.9508057-2.636734,2.1294556-3.8054962,2.6206665
		c-18.2728119,7.6789246-36.6437225,15.1336975-54.8072815,23.0621033
		c-6.6783447,2.9155579-13.134552,4.2392273-20.4295197,3.0409546c-9.541748-1.5667419-19.0453796-3.1278381-29.2279282-6.2151794
		c8.9469223-2.5988464,17.01194-5.0253906,25.1245956-7.2809143c15.2977142-4.2525635,30.6191864-8.4196167,45.937851-12.5978394
		C209.4491272,328.342926,221.7561646,329.4437561,234.625885,328.9945679z"/>
	<path class="st0" d="M335.2735901,105.0547638c3.7143555,7.0770721,6.3377991,13.939743,8.7355957,20.8941193
		c2.649353,7.6846008,4.5944824,15.5576782,6.2250366,23.5175781c0.8274841,4.041626-0.4806824,7.8254395-1.1540527,11.6792145
		c-2.3432007,13.4135284-4.7493896,26.8150635-7.1878052,40.2109985c-0.3405151,1.8674164-0.9312439,3.6990204-1.5323792,5.5054321
		c-0.3146362,0.9445343-1.072113,1.6151276-2.1603088,1.6067352c-1.1771545-0.0084686-1.5471191-0.9487762-1.91922-1.8428802
		c-0.5184631-1.245163-0.6018982-2.5498199-0.5135803-3.8748627c2.1391907-32.0373535,0.7630615-64.0501709-0.6726685-96.0622635
		C335.0802002,106.3734818,335.1607971,106.0532455,335.2735901,105.0547638z"/>
	<path class="st0" d="M275.8536072,102.3577652c-9.4909363-26.8724594-18.982605-53.7449989-28.4911041-80.6671829
		c6.0645752,0.1632347,11.6771393,4.5461063,13.1009674,10.0234756
		C266.525177,55.0424232,271.864502,78.5333099,275.8536072,102.3577652z"/>
	<path class="st0" d="M180.1132812,222.8162842c5.7527618,0.0322876,28.252533,11.28479,36.5326691,18.2700195
		C209.3187561,241.1703949,184.7084656,228.8626404,180.1132812,222.8162842z"/>
	<path class="st0" d="M236.6222229,341.434082c-11.7079926,7.1773071-22.5954895,16.2078857-38.3121643,15.7797241
		c12.9748993-5.7680969,25.4115906-11.2973328,37.848938-16.8265991
		C236.3131866,340.7362366,236.4680328,341.085144,236.6222229,341.434082z"/>
	<path class="st0" d="M236.7363739,244.211441c-8.9808502-2.5701447-15.992691-7.8975525-24.1089478-12.2040863
		C218.7024841,232.0914612,232.6043549,239.1488647,236.7363739,244.211441z"/>
	<path class="st0" d="M151.1348419,215.1478271c6.2684326,0.8128815,12.7635956,1.0419769,17.4288177,5.9559631
		c-0.1611633,0.410614-0.3219604,0.8212585-0.4827576,1.2318268
		C162.4321899,219.9399719,156.7835541,217.5435486,151.1348419,215.1478271z"/>
	<path class="st0" d="M227.2082825,255.0891113c2.9303284,1.1126709,5.8606567,2.2253723,9.5610352,3.6302795
		c-4.9700165,1.9367065-7.13591-1.5814819-10.1453857-2.7067566
		C226.8187408,255.7050323,227.0135498,255.3967133,227.2082825,255.0891113z"/>
	<path class="st0" d="M188.5174713,356.2272339c-1.9188538,1.7531738-4.1082001,2.7937317-7.2791901,2.612915
		C183.8143768,357.4541931,185.9799042,356.3512878,188.5174713,356.2272339z"/>
</g>
</svg>
