<?xml version="1.0" encoding="utf-8"?>
<!-- Generator: Adobe Illustrator 23.0.4, SVG Export Plug-In . SVG Version: 6.00 Build 0)  -->
<svg version="1.1" id="Layer_1" xmlns="http://www.w3.org/2000/svg" xmlns:xlink="http://www.w3.org/1999/xlink" x="0px" y="0px"
	 viewBox="0 0 160 48" style="enable-background:new 0 0 160 48;" xml:space="preserve">
<style type="text/css">
	.st0{fill:#E6E7E8;}
</style>
<g id="lavoro_1_">
	<g>
		<path class="st0" d="M6.6934972,44.4234238c-1.5644531,0-2.3152466-0.878418-2.3152466-2.6980591V0.0000229L0.5611731,1.1920395
			v40.7843628c0,3.9529419,1.3140259,5.4588013,4.7556763,5.4588013c4.0674443,0,6.7581182-1.9451294,6.7581182-1.9451294
			l-0.6882324-2.1332397C11.386735,43.3568344,8.633317,44.4234238,6.6934972,44.4234238z M39.357254,44.4234238
			c-1.0638428,0-1.43927-0.5019531-1.43927-1.6940918V25.9136581c0-6.0234375-3.8796387-9.0979614-11.2009277-9.0979614
			c-5.9446411,0-10.6377563,1.9450684-10.6377563,1.9450684l0.8760376,3.137146c0,0,4.0048218-1.7568359,8.9483032-1.7568359
			c5.819458,0,8.1973267,2.0078735,8.1973267,6.5255127v6.3373413c-1.0012207-0.2510376-3.0036621-0.6275635-5.3814697-0.6275635
			c-10.3875122,0-14.392211,3.2628174-14.392211,8.0942383c0,5.0822144,3.8796377,7.5293579,9.3235464,7.5293579
			c5.6318359,0,9.0109253-2.8234863,10.5753174-4.4549561v0.6275024c0,2.1959839,1.7520142,3.2626953,3.8796387,3.2626953
			c3.2538452,0,5.5065308-1.8196411,5.5065308-1.8196411l-0.7508545-2.1333618
			C42.8614655,43.4822006,40.7338409,44.4234238,39.357254,44.4234238z M34.1009674,40.4706039
			c-1.1264038,1.1292725-4.4428711,4.2665405-9.7617188,4.2665405c-3.5042725,0-6.1948853-1.2549438-6.1948853-4.3293457
			c0-2.9490356,2.8157959-5.0196533,10.6376953-5.0196533c2.6906738,0,4.380249,0.3137817,5.3189087,0.5020752V40.4706039z
			 M58.2553864,42.9175644l-9.5739746-25.2234497h-4.1924438l11.7641602,29.3646851h4.0046387l11.7641602-29.3646851H67.766861
			L58.2553864,42.9175644z M89.8560944,16.8156967c-9.7617188,0-14.3297729,7.2155762-14.3297729,15.6862183
			c0,8.7215576,4.8182983,15.4980469,14.3922119,15.4980469c9.4489136,0,14.2671509-6.7764893,14.2671509-15.4980469
			C104.1856842,24.0312729,99.6802521,16.8156967,89.8560944,16.8156967z M89.9185333,44.6744003
			c-6.9457397,0-10.5125732-5.0194702-10.5125732-12.1724854c0-6.5882568,3.1912842-12.3608398,10.4501343-12.3608398
			c7.3212891,0,10.5125732,5.772583,10.5125732,12.3608398C100.3686676,39.6549301,96.8018341,44.6744003,89.9185333,44.6744003z
			 M115.2611847,23.7174911v-6.3999634l-3.8170776,1.1921997v28.5490723h3.8170776V27.2313461
			c1.1889648-2.0706177,4.4428101-6.9019775,8.760498-6.9019775c2.4404297,0,3.5042114,0.7528687,3.5042114,0.7528687
			l1.1262207-3.3253784c0,0-1.3765869-0.9411621-4.0672607-0.9411621
			C119.3910065,16.8156967,116.0746002,22.3372421,115.2611847,23.7174911z M145.1092072,16.8156967
			c-9.7619019,0-14.3297729,7.2155762-14.3297729,15.6862183c0,8.7215576,4.8182983,15.4980469,14.392395,15.4980469
			c9.4487305,0,14.2669678-6.7764893,14.2669678-15.4980469C159.438797,24.0312729,154.9333649,16.8156967,145.1092072,16.8156967z
			 M145.1718292,44.6744003c-6.9459229,0-10.5127563-5.0194702-10.5127563-12.1724854
			c0-6.5882568,3.1912842-12.3608398,10.4501343-12.3608398c7.321167,0,10.5125732,5.772583,10.5125732,12.3608398
			C155.6217804,39.6549301,152.0549469,44.6744003,145.1718292,44.6744003z"/>
	</g>
</g>
</svg>
