<?xml version="1.0" encoding="utf-8"?>
<!-- Generator: Adobe Illustrator 23.0.4, SVG Export Plug-In . SVG Version: 6.00 Build 0)  -->
<svg version="1.1" id="Layer_1" xmlns="http://www.w3.org/2000/svg" xmlns:xlink="http://www.w3.org/1999/xlink" x="0px" y="0px"
	 viewBox="0 0 168 88" style="enable-background:new 0 0 168 88;" xml:space="preserve">
<style type="text/css">
	.st0{fill:#E6E7E8;}
</style>
<g>
	<g id="lavoro_1_">
		<g>
			<path class="st0" d="M6.484436,47.7775383c-1.6542969,0-2.4481812-0.928833-2.4481812-2.8529053V0.8034782L0,2.0639763
				v43.1260986c0,4.1799316,1.3894653,5.7722168,5.0287476,5.7722168c4.3009644,0,7.1461182-2.0568237,7.1461182-2.0568237
				l-0.7277222-2.2556763C11.4471436,46.6497917,8.5356445,47.7775383,6.484436,47.7775383z M41.0236206,47.7775383
				c-1.1248779,0-1.5218506-0.5307007-1.5218506-1.7913208v-17.781189c0-6.3693237-4.102417-9.6203613-11.8440552-9.6203613
				c-6.2860107,0-11.2485352,2.0567627-11.2485352,2.0567627l0.9262695,3.3172607c0,0,4.2348022-1.8577271,9.4620972-1.8577271
				c6.1536255,0,8.6679688,2.1231689,8.6679688,6.9002075v6.7012329c-1.0586548-0.2654419-3.1760864-0.6635742-5.6904297-0.6635742
				c-10.9839478,0-15.2185669,3.4501343-15.2185669,8.55896c0,5.3740845,4.102417,7.961731,9.8588867,7.961731
				c5.9552002,0,9.5282593-2.9856567,11.1824951-4.7108154v0.6635742c0,2.3220825,1.8526611,3.4500122,4.102417,3.4500122
				c3.4406738,0,5.8226929-1.9240723,5.8226929-1.9240723l-0.7939453-2.2558594
				C44.7290649,46.7823601,42.4793091,47.7775383,41.0236206,47.7775383z M35.4655151,43.5977898
				c-1.19104,1.1940918-4.697937,4.5115356-10.3222046,4.5115356c-3.7054443,0-6.5505981-1.3269653-6.5505981-4.5779419
				c0-3.1183472,2.9775391-5.3078613,11.2485352-5.3078613c2.8451538,0,4.6317749,0.3317871,5.6242676,0.5308838V43.5977898z
				 M61.0068359,46.1852531L50.8831787,19.5135002h-4.4331665l12.4395752,31.0507812h4.2346191l12.4396362-31.0507812h-4.4993896
				L61.0068359,46.1852531z M94.4219971,18.5846672c-10.3222046,0-15.1525269,7.6299438-15.1525269,16.586853
				c0,9.2224121,5.0949097,16.3880005,15.2185669,16.3880005c9.9914551,0,15.0863647-7.1655884,15.0863647-16.3880005
				C109.5744019,26.2146111,104.8102417,18.5846672,94.4219971,18.5846672z M94.4880371,48.0429802
				c-7.3445435,0-11.1161499-5.3076782-11.1161499-12.87146c0-6.9664917,3.3745117-13.0705566,11.0501099-13.0705566
				c7.7416992,0,11.1162109,6.1040649,11.1162109,13.0705566C105.538208,42.735302,101.7665405,48.0429802,94.4880371,48.0429802z
				 M121.2857666,25.8827629v-6.767395l-4.0362549,1.2606201v30.1882935h4.0362549V29.5984001
				c1.2572632-2.1895142,4.697937-7.2983398,9.2634888-7.2983398c2.5805664,0,3.7054443,0.7961426,3.7054443,0.7961426
				l1.190918-3.5163574c0,0-1.4556274-0.9951782-4.3007812-0.9951782
				C125.652771,18.5846672,122.145874,24.4232292,121.2857666,25.8827629z M152.8475952,18.5846672
				c-10.3223877,0-15.1525269,7.6299438-15.1525269,16.586853c0,9.2224121,5.0949097,16.3880005,15.21875,16.3880005
				C162.9050903,51.5595207,168,44.3939323,168,35.1715202C168,26.2146111,163.2358398,18.5846672,152.8475952,18.5846672z
				 M152.9138184,48.0429802c-7.3447266,0-11.116333-5.3076782-11.116333-12.87146
				c0-6.9664917,3.3745117-13.0705566,11.0501099-13.0705566c7.7415161,0,11.1161499,6.1040649,11.1161499,13.0705566
				C163.9637451,42.735302,160.1921387,48.0429802,152.9138184,48.0429802z"/>
		</g>
	</g>
	<g id="technologies_1_">
		<g>
			<path class="st0" d="M25.711792,79.4936066c-1.1223755,0-1.6034546-0.5535278-1.6034546-1.8910522v-5.9963379h3.5046387
				v-1.5912476h-3.5046387v-3.2749634l-1.8553467,0.5997314v2.6752319h-1.3285522l-0.4123535,1.5912476h1.7409058v5.927124
				c0,2.5598755,1.2598267,3.6207886,3.3213501,3.6207886c1.5118408,0,2.5656128-0.9226074,2.5656128-0.9226074
				l-0.6414185-1.3144531C27.4985352,78.9170685,26.8342896,79.4936066,25.711792,79.4936066z M34.6223145,69.6921539
				c-3.5962524,0-5.2683716,2.6521606-5.2683716,5.7424316c0,3.1134033,1.7180176,5.7195435,5.3829956,5.7195435
				c2.5654907,0,4.0545044-1.5913086,4.0545044-1.5913086L38.21875,78.2481842c0,0-1.3056641,1.2915039-3.4589233,1.2915039
				c-2.1303101,0-3.2756348-1.4298096-3.5046997-3.413269h7.8110962c0,0,0.2290039-0.6686401,0.2290039-1.5450439
				C39.2952271,72.8976593,38.2874756,69.6921539,34.6223145,69.6921539z M37.5545044,74.6504669H31.255127
				c0.2061768-1.9141235,1.3285522-3.3440552,3.3671875-3.3440552c2.0386963,0,2.9321899,1.5222168,2.9321899,3.1364746V74.6504669z
				 M46.4420166,79.5396881c-2.3592529,0-3.5274658-1.7758179-3.5274658-4.1051025
				c0-2.3061523,1.1682129-4.1281738,3.5505371-4.1281738c2.0843506,0,2.8632202,0.8533325,2.8632202,0.8533325l0.710144-1.4067383
				c0,0-1.2369385-1.0608521-3.6192627-1.0608521c-3.664978,0-5.3830566,2.6521606-5.3830566,5.7424316
				c0,3.1134033,1.7637939,5.7195435,5.3602295,5.7195435c2.6113281,0,4.0773315-1.4760132,4.0773315-1.4760132
				l-0.5726929-1.4299316C49.901001,78.2481842,48.6181641,79.5396881,46.4420166,79.5396881z M62.1100464,79.4705963
				c-0.3434448,0-0.480896-0.1845093-0.480896-0.6228027v-5.0505371c0-2.6061401-1.1682129-4.1051025-3.5046997-4.1051025
				c-2.1074219,0-3.4359131,1.5912476-3.6651611,1.8217773v-8.0026894l-1.8553467,0.5997963v16.6970825h1.8553467v-7.7949829
				c0.4124146-0.484314,1.5806274-1.7067261,3.2069092-1.7067261c1.534729,0,2.1074219,0.7841187,2.1074219,2.6983643v4.8892212
				c0,1.4760132,0.4810791,2.0526123,1.7180176,2.0526123c1.3744507,0,2.2905884-0.7611084,2.2905884-0.7611084
				l-0.3434448-1.0609131C63.4387817,79.124588,62.6599121,79.4705963,62.1100464,79.4705963z M74.7773438,79.4705963
				c-0.3208008,0-0.4810791-0.1845093-0.4810791-0.6228027v-5.0505371c0-2.6061401-1.1682129-4.1051025-3.5046387-4.1051025
				c-2.1074219,0-3.4359741,1.5912476-3.6650391,1.8217773v-1.6372681l-1.8554688,0.5996094v10.3318481h1.8554688v-7.7949829
				c0.4581299-0.4613037,1.6491699-1.5914307,3.2069092-1.5914307c1.534729,0,2.1074219,0.7611084,2.1074219,2.5830688v4.8892212
				c0,1.4760132,0.5039673,2.0526123,1.7409058,2.0526123c1.3513794,0,2.2677002-0.7611084,2.2677002-0.7611084L76.105896,79.124588
				C76.105896,79.124588,75.3270264,79.4705963,74.7773438,79.4705963z M82.7487793,69.6921539
				c-3.6421509,0-5.3830566,2.6521606-5.3830566,5.7424316c0,3.1134033,1.7409058,5.7195435,5.3830566,5.7195435
				c3.6190796,0,5.3599854-2.6061401,5.3599854-5.7195435C88.1087646,72.3443146,86.3908691,69.6921539,82.7487793,69.6921539z
				 M82.7487793,79.5396881c-2.359314,0-3.5046997-1.7758179-3.5046997-4.1051025
				c0-2.3061523,1.1453857-4.1281738,3.5046997-4.1281738c2.3592529,0,3.5046387,1.8220215,3.5046387,4.1281738
				C86.253418,77.7638702,85.0852051,79.5396881,82.7487793,79.5396881z M93.0337524,79.4705963
				c-0.4352417,0-0.6643066-0.2075195-0.6643066-0.7380981V63.5112419l-1.8555298,0.5997963v14.782959
				c0,1.4760132,0.5039673,2.0526123,1.8327026,2.0526123c1.6491699,0,2.7716675-0.8303833,2.7716675-0.8303833
				l-0.3436279-1.0609131C94.7746582,79.0553131,93.7438965,79.4705963,93.0337524,79.4705963z M101.3483887,69.6921539
				c-3.6419067,0-5.3828735,2.6521606-5.3828735,5.7424316c0,3.1134033,1.7409668,5.7195435,5.3828735,5.7195435
				c3.6193237,0,5.3602295-2.6061401,5.3602295-5.7195435C106.7086182,72.3443146,104.9905396,69.6921539,101.3483887,69.6921539z
				 M101.3483887,79.5396881c-2.3592529,0-3.5046387-1.7758179-3.5046387-4.1051025
				c0-2.3061523,1.1453857-4.1281738,3.5046387-4.1281738c2.3594971,0,3.5048828,1.8220215,3.5048828,4.1281738
				C104.8532715,77.7638702,103.6848755,79.5396881,101.3483887,79.5396881z M118.7573242,66.1403961h-1.8324585
				c0,2.2833252-0.4580688,3.7362671-1.5117188,3.8283691c-0.5726929-0.161377-1.168396-0.2766113-1.8783569-0.2766113
				c-3.52771,0-4.9937134,2.0755615-4.9937134,4.3126221c0,1.7295532,0.7788696,3.0672607,2.2677612,3.7590942
				c-0.7330322,0.3460083-1.3285522,0.8994141-1.3285522,1.7527466c0,0.7611084,0.3208008,1.2684326,0.8704224,1.5914307
				c-0.9620361,0.4151001-1.9470825,1.222229-1.9470825,2.7444458c0,1.9833374,1.6951904,3.3440552,5.1311646,3.3440552
				c3.4588013,0,5.0622559-1.4530029,5.0622559-3.5747681c0-1.6835327-0.939209-3.3902588-5.1081543-3.3902588
				c-1.3513794,0-2.1989746-0.1152954-2.1989746-0.8301392c0-1.1069336,1.6263428-1.1531982,1.6721802-1.1531982l0.59552,0.0230713
				c3.0922852,0,4.7645264-1.7296143,4.7645264-4.2664795c0-1.2684326-0.4581299-2.4676514-1.4660034-3.2749634
				C118.0930786,70.0149689,118.7573242,68.3314362,118.7573242,66.1403961z M111.7479858,81.7767487
				c0.5498657,0.0462036,1.1453857,0.0692139,1.7409058,0.0692139c2.7488403,0,3.2528076,0.9456177,3.2528076,1.7758179
				c0,1.2454224-0.9622192,1.9602661-3.2069092,1.9602661c-2.1761475,0-3.2756348-0.6918335-3.2756348-1.9602661
				C110.2591553,82.5147858,111.1295776,82.0074615,111.7479858,81.7767487z M113.5576172,76.6569366
				c-2.0845337,0-3.1610107-0.9226074-3.1610107-2.6521606c0-1.383728,0.939209-2.6983643,3.1151733-2.6983643
				c2.0158081,0,2.9550171,1.3146362,2.9550171,2.6983643C116.4667969,75.7343292,115.4360352,76.6569366,113.5576172,76.6569366z
				 M121.5289917,65.3332672c-0.7559814,0-1.3056641,0.5996094-1.3056641,1.383728s0.5496826,1.383728,1.3056641,1.383728
				c0.7558594,0,1.3057251-0.5996094,1.3057251-1.383728S122.2848511,65.3332672,121.5289917,65.3332672z M120.6357422,80.8081207
				h1.8552856V70.0149689h-1.8552856V80.8081207z M130.2105103,69.6921539c-3.5963745,0-5.2685547,2.6521606-5.2685547,5.7424316
				c0,3.1134033,1.7180176,5.7195435,5.3830566,5.7195435c2.5654297,0,4.0544434-1.5913086,4.0544434-1.5913086
				l-0.5726318-1.3146362c0,0-1.3057251,1.2915039-3.4588013,1.2915039c-2.1304321,0-3.2756348-1.4298096-3.5048828-3.413269
				h7.8110962c0,0,0.229187-0.6686401,0.229187-1.5450439C134.8834229,72.8976593,133.8755493,69.6921539,130.2105103,69.6921539z
				 M133.1425171,74.6504669h-6.2993774c0.2062378-1.9141235,1.3287354-3.3440552,3.3673706-3.3440552
				c2.0385742,0,2.9320068,1.5222168,2.9320068,3.1364746V74.6504669z M141.4804077,74.7196808
				c-1.4888306-0.2767944-2.7945557-0.4613037-2.7945557-1.706543c0-1.0148315,0.9161987-1.7067261,2.7488403-1.7067261
				c2.1531372,0,3.3213501,0.8994141,3.3213501,0.8994141l0.6871338-1.3607178c0,0-1.4429932-1.1529541-4.0314941-1.1529541
				c-3.3671875,0-4.6270142,1.6835327-4.6270142,3.3209839c0,2.7904663,2.5195923,3.0441895,4.4666748,3.4592896
				c1.3514404,0.2537231,2.4280396,0.5303345,2.4280396,1.6835327c0,0.7841187-0.9620361,1.383728-2.6113281,1.383728
				c-2.4052124,0-3.894043-1.222229-3.894043-1.222229l-0.6414185,1.4529419c0,0,1.5806274,1.383728,4.5584717,1.383728
				c2.8861084,0,4.489563-1.130127,4.489563-2.9981689C145.5806274,75.6422882,143.3587646,75.0656891,141.4804077,74.7196808z"/>
		</g>
	</g>
</g>
</svg>
